<?xml version="1.0" encoding="utf-8"?>
<svg xmlns="http://www.w3.org/2000/svg" xmlns:xlink="http://www.w3.org/1999/xlink" width="600" height="400" viewBox="0 0 2400 1600">
<defs>
  <clipPath id="clip950">
    <rect x="0" y="0" width="2400" height="1600"/>
  </clipPath>
</defs>
<path clip-path="url(#clip950)" d="
M0 1600 L2400 1600 L2400 0 L0 0  Z
  " fill="#ffffff" fill-rule="evenodd" fill-opacity="1"/>
<defs>
  <clipPath id="clip951">
    <rect x="480" y="0" width="1681" height="1600"/>
  </clipPath>
</defs>
<path clip-path="url(#clip950)" d="
M186.274 1486.45 L2352.76 1486.45 L2352.76 47.2441 L186.274 47.2441  Z
  " fill="#ffffff" fill-rule="evenodd" fill-opacity="1"/>
<defs>
  <clipPath id="clip952">
    <rect x="186" y="47" width="2167" height="1440"/>
  </clipPath>
</defs>
<polyline clip-path="url(#clip952)" style="stroke:#000000; stroke-linecap:butt; stroke-linejoin:round; stroke-width:2; stroke-opacity:0.1; fill:none" points="
  515.295,1486.45 515.295,47.2441 
  "/>
<polyline clip-path="url(#clip952)" style="stroke:#000000; stroke-linecap:butt; stroke-linejoin:round; stroke-width:2; stroke-opacity:0.1; fill:none" points="
  973.031,1486.45 973.031,47.2441 
  "/>
<polyline clip-path="url(#clip952)" style="stroke:#000000; stroke-linecap:butt; stroke-linejoin:round; stroke-width:2; stroke-opacity:0.1; fill:none" points="
  1430.77,1486.45 1430.77,47.2441 
  "/>
<polyline clip-path="url(#clip952)" style="stroke:#000000; stroke-linecap:butt; stroke-linejoin:round; stroke-width:2; stroke-opacity:0.1; fill:none" points="
  1888.5,1486.45 1888.5,47.2441 
  "/>
<polyline clip-path="url(#clip952)" style="stroke:#000000; stroke-linecap:butt; stroke-linejoin:round; stroke-width:2; stroke-opacity:0.1; fill:none" points="
  2346.24,1486.45 2346.24,47.2441 
  "/>
<polyline clip-path="url(#clip950)" style="stroke:#000000; stroke-linecap:butt; stroke-linejoin:round; stroke-width:4; stroke-opacity:1; fill:none" points="
  186.274,1486.45 2352.76,1486.45 
  "/>
<polyline clip-path="url(#clip950)" style="stroke:#000000; stroke-linecap:butt; stroke-linejoin:round; stroke-width:4; stroke-opacity:1; fill:none" points="
  515.295,1486.45 515.295,1467.55 
  "/>
<polyline clip-path="url(#clip950)" style="stroke:#000000; stroke-linecap:butt; stroke-linejoin:round; stroke-width:4; stroke-opacity:1; fill:none" points="
  973.031,1486.45 973.031,1467.55 
  "/>
<polyline clip-path="url(#clip950)" style="stroke:#000000; stroke-linecap:butt; stroke-linejoin:round; stroke-width:4; stroke-opacity:1; fill:none" points="
  1430.77,1486.45 1430.77,1467.55 
  "/>
<polyline clip-path="url(#clip950)" style="stroke:#000000; stroke-linecap:butt; stroke-linejoin:round; stroke-width:4; stroke-opacity:1; fill:none" points="
  1888.5,1486.45 1888.5,1467.55 
  "/>
<polyline clip-path="url(#clip950)" style="stroke:#000000; stroke-linecap:butt; stroke-linejoin:round; stroke-width:4; stroke-opacity:1; fill:none" points="
  2346.24,1486.45 2346.24,1467.55 
  "/>
<path clip-path="url(#clip950)" d="M493.478 1517.37 Q489.867 1517.37 488.039 1520.93 Q486.233 1524.47 486.233 1531.6 Q486.233 1538.71 488.039 1542.27 Q489.867 1545.82 493.478 1545.82 Q497.113 1545.82 498.918 1542.27 Q500.747 1538.71 500.747 1531.6 Q500.747 1524.47 498.918 1520.93 Q497.113 1517.37 493.478 1517.37 M493.478 1513.66 Q499.288 1513.66 502.344 1518.27 Q505.423 1522.85 505.423 1531.6 Q505.423 1540.33 502.344 1544.94 Q499.288 1549.52 493.478 1549.52 Q487.668 1549.52 484.589 1544.94 Q481.534 1540.33 481.534 1531.6 Q481.534 1522.85 484.589 1518.27 Q487.668 1513.66 493.478 1513.66 Z" fill="#000000" fill-rule="evenodd" fill-opacity="1" /><path clip-path="url(#clip950)" d="M513.64 1542.97 L518.524 1542.97 L518.524 1548.85 L513.64 1548.85 L513.64 1542.97 Z" fill="#000000" fill-rule="evenodd" fill-opacity="1" /><path clip-path="url(#clip950)" d="M532.737 1544.91 L549.057 1544.91 L549.057 1548.85 L527.112 1548.85 L527.112 1544.91 Q529.774 1542.16 534.358 1537.53 Q538.964 1532.88 540.145 1531.53 Q542.39 1529.01 543.27 1527.27 Q544.172 1525.51 544.172 1523.82 Q544.172 1521.07 542.228 1519.33 Q540.307 1517.6 537.205 1517.6 Q535.006 1517.6 532.552 1518.36 Q530.122 1519.13 527.344 1520.68 L527.344 1515.95 Q530.168 1514.82 532.622 1514.24 Q535.075 1513.66 537.112 1513.66 Q542.483 1513.66 545.677 1516.35 Q548.872 1519.03 548.872 1523.52 Q548.872 1525.65 548.061 1527.57 Q547.274 1529.47 545.168 1532.07 Q544.589 1532.74 541.487 1535.95 Q538.385 1539.15 532.737 1544.91 Z" fill="#000000" fill-rule="evenodd" fill-opacity="1" /><path clip-path="url(#clip950)" d="M950.172 1517.37 Q946.561 1517.37 944.732 1520.93 Q942.927 1524.47 942.927 1531.6 Q942.927 1538.71 944.732 1542.27 Q946.561 1545.82 950.172 1545.82 Q953.806 1545.82 955.612 1542.27 Q957.441 1538.71 957.441 1531.6 Q957.441 1524.47 955.612 1520.93 Q953.806 1517.37 950.172 1517.37 M950.172 1513.66 Q955.982 1513.66 959.038 1518.27 Q962.116 1522.85 962.116 1531.6 Q962.116 1540.33 959.038 1544.94 Q955.982 1549.52 950.172 1549.52 Q944.362 1549.52 941.283 1544.94 Q938.228 1540.33 938.228 1531.6 Q938.228 1522.85 941.283 1518.27 Q944.362 1513.66 950.172 1513.66 Z" fill="#000000" fill-rule="evenodd" fill-opacity="1" /><path clip-path="url(#clip950)" d="M970.334 1542.97 L975.218 1542.97 L975.218 1548.85 L970.334 1548.85 L970.334 1542.97 Z" fill="#000000" fill-rule="evenodd" fill-opacity="1" /><path clip-path="url(#clip950)" d="M998.251 1518.36 L986.445 1536.81 L998.251 1536.81 L998.251 1518.36 M997.024 1514.29 L1002.9 1514.29 L1002.9 1536.81 L1007.83 1536.81 L1007.83 1540.7 L1002.9 1540.7 L1002.9 1548.85 L998.251 1548.85 L998.251 1540.7 L982.649 1540.7 L982.649 1536.19 L997.024 1514.29 Z" fill="#000000" fill-rule="evenodd" fill-opacity="1" /><path clip-path="url(#clip950)" d="M1408.07 1517.37 Q1404.46 1517.37 1402.63 1520.93 Q1400.82 1524.47 1400.82 1531.6 Q1400.82 1538.71 1402.63 1542.27 Q1404.46 1545.82 1408.07 1545.82 Q1411.7 1545.82 1413.51 1542.27 Q1415.34 1538.71 1415.34 1531.6 Q1415.34 1524.47 1413.51 1520.93 Q1411.7 1517.37 1408.07 1517.37 M1408.07 1513.66 Q1413.88 1513.66 1416.94 1518.27 Q1420.01 1522.85 1420.01 1531.6 Q1420.01 1540.33 1416.94 1544.94 Q1413.88 1549.52 1408.07 1549.52 Q1402.26 1549.52 1399.18 1544.94 Q1396.13 1540.33 1396.13 1531.6 Q1396.13 1522.85 1399.18 1518.27 Q1402.26 1513.66 1408.07 1513.66 Z" fill="#000000" fill-rule="evenodd" fill-opacity="1" /><path clip-path="url(#clip950)" d="M1428.23 1542.97 L1433.12 1542.97 L1433.12 1548.85 L1428.23 1548.85 L1428.23 1542.97 Z" fill="#000000" fill-rule="evenodd" fill-opacity="1" /><path clip-path="url(#clip950)" d="M1453.88 1529.7 Q1450.73 1529.7 1448.88 1531.86 Q1447.05 1534.01 1447.05 1537.76 Q1447.05 1541.49 1448.88 1543.66 Q1450.73 1545.82 1453.88 1545.82 Q1457.03 1545.82 1458.86 1543.66 Q1460.71 1541.49 1460.71 1537.76 Q1460.71 1534.01 1458.86 1531.86 Q1457.03 1529.7 1453.88 1529.7 M1463.16 1515.05 L1463.16 1519.31 Q1461.4 1518.48 1459.6 1518.04 Q1457.81 1517.6 1456.06 1517.6 Q1451.43 1517.6 1448.97 1520.72 Q1446.54 1523.85 1446.19 1530.17 Q1447.56 1528.15 1449.62 1527.09 Q1451.68 1526 1454.16 1526 Q1459.37 1526 1462.37 1529.17 Q1465.41 1532.32 1465.41 1537.76 Q1465.41 1543.08 1462.26 1546.3 Q1459.11 1549.52 1453.88 1549.52 Q1447.88 1549.52 1444.71 1544.94 Q1441.54 1540.33 1441.54 1531.6 Q1441.54 1523.41 1445.43 1518.55 Q1449.32 1513.66 1455.87 1513.66 Q1457.63 1513.66 1459.41 1514.01 Q1461.22 1514.36 1463.16 1515.05 Z" fill="#000000" fill-rule="evenodd" fill-opacity="1" /><path clip-path="url(#clip950)" d="M1865.93 1517.37 Q1862.32 1517.37 1860.49 1520.93 Q1858.69 1524.47 1858.69 1531.6 Q1858.69 1538.71 1860.49 1542.27 Q1862.32 1545.82 1865.93 1545.82 Q1869.57 1545.82 1871.37 1542.27 Q1873.2 1538.71 1873.2 1531.6 Q1873.2 1524.47 1871.37 1520.93 Q1869.57 1517.37 1865.93 1517.37 M1865.93 1513.66 Q1871.74 1513.66 1874.8 1518.27 Q1877.88 1522.85 1877.88 1531.6 Q1877.88 1540.33 1874.8 1544.94 Q1871.74 1549.52 1865.93 1549.52 Q1860.12 1549.52 1857.04 1544.94 Q1853.99 1540.33 1853.99 1531.6 Q1853.99 1522.85 1857.04 1518.27 Q1860.12 1513.66 1865.93 1513.66 Z" fill="#000000" fill-rule="evenodd" fill-opacity="1" /><path clip-path="url(#clip950)" d="M1886.09 1542.97 L1890.98 1542.97 L1890.98 1548.85 L1886.09 1548.85 L1886.09 1542.97 Z" fill="#000000" fill-rule="evenodd" fill-opacity="1" /><path clip-path="url(#clip950)" d="M1911.16 1532.44 Q1907.83 1532.44 1905.91 1534.22 Q1904.01 1536 1904.01 1539.13 Q1904.01 1542.25 1905.91 1544.03 Q1907.83 1545.82 1911.16 1545.82 Q1914.5 1545.82 1916.42 1544.03 Q1918.34 1542.23 1918.34 1539.13 Q1918.34 1536 1916.42 1534.22 Q1914.52 1532.44 1911.16 1532.44 M1906.49 1530.45 Q1903.48 1529.7 1901.79 1527.64 Q1900.12 1525.58 1900.12 1522.62 Q1900.12 1518.48 1903.06 1516.07 Q1906.02 1513.66 1911.16 1513.66 Q1916.33 1513.66 1919.27 1516.07 Q1922.21 1518.48 1922.21 1522.62 Q1922.21 1525.58 1920.52 1527.64 Q1918.85 1529.7 1915.86 1530.45 Q1919.24 1531.23 1921.12 1533.52 Q1923.02 1535.82 1923.02 1539.13 Q1923.02 1544.15 1919.94 1546.83 Q1916.88 1549.52 1911.16 1549.52 Q1905.45 1549.52 1902.37 1546.83 Q1899.31 1544.15 1899.31 1539.13 Q1899.31 1535.82 1901.21 1533.52 Q1903.11 1531.23 1906.49 1530.45 M1904.77 1523.06 Q1904.77 1525.75 1906.44 1527.25 Q1908.13 1528.76 1911.16 1528.76 Q1914.17 1528.76 1915.86 1527.25 Q1917.58 1525.75 1917.58 1523.06 Q1917.58 1520.38 1915.86 1518.87 Q1914.17 1517.37 1911.16 1517.37 Q1908.13 1517.37 1906.44 1518.87 Q1904.77 1520.38 1904.77 1523.06 Z" fill="#000000" fill-rule="evenodd" fill-opacity="1" /><path clip-path="url(#clip950)" d="M2313.39 1544.91 L2321.03 1544.91 L2321.03 1518.55 L2312.72 1520.21 L2312.72 1515.95 L2320.98 1514.29 L2325.66 1514.29 L2325.66 1544.91 L2333.3 1544.91 L2333.3 1548.85 L2313.39 1548.85 L2313.39 1544.91 Z" fill="#000000" fill-rule="evenodd" fill-opacity="1" /><path clip-path="url(#clip950)" d="M2342.74 1542.97 L2347.63 1542.97 L2347.63 1548.85 L2342.74 1548.85 L2342.74 1542.97 Z" fill="#000000" fill-rule="evenodd" fill-opacity="1" /><path clip-path="url(#clip950)" d="M2367.81 1517.37 Q2364.2 1517.37 2362.37 1520.93 Q2360.57 1524.47 2360.57 1531.6 Q2360.57 1538.71 2362.37 1542.27 Q2364.2 1545.82 2367.81 1545.82 Q2371.45 1545.82 2373.25 1542.27 Q2375.08 1538.71 2375.08 1531.6 Q2375.08 1524.47 2373.25 1520.93 Q2371.45 1517.37 2367.81 1517.37 M2367.81 1513.66 Q2373.62 1513.66 2376.68 1518.27 Q2379.76 1522.85 2379.76 1531.6 Q2379.76 1540.33 2376.68 1544.94 Q2373.62 1549.52 2367.81 1549.52 Q2362 1549.52 2358.92 1544.94 Q2355.87 1540.33 2355.87 1531.6 Q2355.87 1522.85 2358.92 1518.27 Q2362 1513.66 2367.81 1513.66 Z" fill="#000000" fill-rule="evenodd" fill-opacity="1" /><polyline clip-path="url(#clip952)" style="stroke:#000000; stroke-linecap:butt; stroke-linejoin:round; stroke-width:2; stroke-opacity:0.1; fill:none" points="
  186.274,1459.12 2352.76,1459.12 
  "/>
<polyline clip-path="url(#clip952)" style="stroke:#000000; stroke-linecap:butt; stroke-linejoin:round; stroke-width:2; stroke-opacity:0.1; fill:none" points="
  186.274,1113.18 2352.76,1113.18 
  "/>
<polyline clip-path="url(#clip952)" style="stroke:#000000; stroke-linecap:butt; stroke-linejoin:round; stroke-width:2; stroke-opacity:0.1; fill:none" points="
  186.274,767.243 2352.76,767.243 
  "/>
<polyline clip-path="url(#clip952)" style="stroke:#000000; stroke-linecap:butt; stroke-linejoin:round; stroke-width:2; stroke-opacity:0.1; fill:none" points="
  186.274,421.304 2352.76,421.304 
  "/>
<polyline clip-path="url(#clip952)" style="stroke:#000000; stroke-linecap:butt; stroke-linejoin:round; stroke-width:2; stroke-opacity:0.1; fill:none" points="
  186.274,75.3647 2352.76,75.3647 
  "/>
<polyline clip-path="url(#clip950)" style="stroke:#000000; stroke-linecap:butt; stroke-linejoin:round; stroke-width:4; stroke-opacity:1; fill:none" points="
  186.274,1486.45 186.274,47.2441 
  "/>
<polyline clip-path="url(#clip950)" style="stroke:#000000; stroke-linecap:butt; stroke-linejoin:round; stroke-width:4; stroke-opacity:1; fill:none" points="
  186.274,1459.12 205.172,1459.12 
  "/>
<polyline clip-path="url(#clip950)" style="stroke:#000000; stroke-linecap:butt; stroke-linejoin:round; stroke-width:4; stroke-opacity:1; fill:none" points="
  186.274,1113.18 205.172,1113.18 
  "/>
<polyline clip-path="url(#clip950)" style="stroke:#000000; stroke-linecap:butt; stroke-linejoin:round; stroke-width:4; stroke-opacity:1; fill:none" points="
  186.274,767.243 205.172,767.243 
  "/>
<polyline clip-path="url(#clip950)" style="stroke:#000000; stroke-linecap:butt; stroke-linejoin:round; stroke-width:4; stroke-opacity:1; fill:none" points="
  186.274,421.304 205.172,421.304 
  "/>
<polyline clip-path="url(#clip950)" style="stroke:#000000; stroke-linecap:butt; stroke-linejoin:round; stroke-width:4; stroke-opacity:1; fill:none" points="
  186.274,75.3647 205.172,75.3647 
  "/>
<path clip-path="url(#clip950)" d="M62.9365 1444.92 Q59.3254 1444.92 57.4967 1448.49 Q55.6912 1452.03 55.6912 1459.16 Q55.6912 1466.26 57.4967 1469.83 Q59.3254 1473.37 62.9365 1473.37 Q66.5707 1473.37 68.3763 1469.83 Q70.205 1466.26 70.205 1459.16 Q70.205 1452.03 68.3763 1448.49 Q66.5707 1444.92 62.9365 1444.92 M62.9365 1441.22 Q68.7467 1441.22 71.8022 1445.82 Q74.8809 1450.41 74.8809 1459.16 Q74.8809 1467.88 71.8022 1472.49 Q68.7467 1477.07 62.9365 1477.07 Q57.1264 1477.07 54.0477 1472.49 Q50.9921 1467.88 50.9921 1459.16 Q50.9921 1450.41 54.0477 1445.82 Q57.1264 1441.22 62.9365 1441.22 Z" fill="#000000" fill-rule="evenodd" fill-opacity="1" /><path clip-path="url(#clip950)" d="M83.0984 1470.52 L87.9827 1470.52 L87.9827 1476.4 L83.0984 1476.4 L83.0984 1470.52 Z" fill="#000000" fill-rule="evenodd" fill-opacity="1" /><path clip-path="url(#clip950)" d="M108.168 1444.92 Q104.557 1444.92 102.728 1448.49 Q100.922 1452.03 100.922 1459.16 Q100.922 1466.26 102.728 1469.83 Q104.557 1473.37 108.168 1473.37 Q111.802 1473.37 113.608 1469.83 Q115.436 1466.26 115.436 1459.16 Q115.436 1452.03 113.608 1448.49 Q111.802 1444.92 108.168 1444.92 M108.168 1441.22 Q113.978 1441.22 117.033 1445.82 Q120.112 1450.41 120.112 1459.16 Q120.112 1467.88 117.033 1472.49 Q113.978 1477.07 108.168 1477.07 Q102.358 1477.07 99.2789 1472.49 Q96.2234 1467.88 96.2234 1459.16 Q96.2234 1450.41 99.2789 1445.82 Q102.358 1441.22 108.168 1441.22 Z" fill="#000000" fill-rule="evenodd" fill-opacity="1" /><path clip-path="url(#clip950)" d="M138.33 1444.92 Q134.719 1444.92 132.89 1448.49 Q131.084 1452.03 131.084 1459.16 Q131.084 1466.26 132.89 1469.83 Q134.719 1473.37 138.33 1473.37 Q141.964 1473.37 143.769 1469.83 Q145.598 1466.26 145.598 1459.16 Q145.598 1452.03 143.769 1448.49 Q141.964 1444.92 138.33 1444.92 M138.33 1441.22 Q144.14 1441.22 147.195 1445.82 Q150.274 1450.41 150.274 1459.16 Q150.274 1467.88 147.195 1472.49 Q144.14 1477.07 138.33 1477.07 Q132.519 1477.07 129.441 1472.49 Q126.385 1467.88 126.385 1459.16 Q126.385 1450.41 129.441 1445.82 Q132.519 1441.22 138.33 1441.22 Z" fill="#000000" fill-rule="evenodd" fill-opacity="1" /><path clip-path="url(#clip950)" d="M63.9319 1098.98 Q60.3208 1098.98 58.4921 1102.55 Q56.6865 1106.09 56.6865 1113.22 Q56.6865 1120.32 58.4921 1123.89 Q60.3208 1127.43 63.9319 1127.43 Q67.5661 1127.43 69.3717 1123.89 Q71.2004 1120.32 71.2004 1113.22 Q71.2004 1106.09 69.3717 1102.55 Q67.5661 1098.98 63.9319 1098.98 M63.9319 1095.28 Q69.742 1095.28 72.7976 1099.88 Q75.8763 1104.47 75.8763 1113.22 Q75.8763 1121.94 72.7976 1126.55 Q69.742 1131.13 63.9319 1131.13 Q58.1217 1131.13 55.043 1126.55 Q51.9875 1121.94 51.9875 1113.22 Q51.9875 1104.47 55.043 1099.88 Q58.1217 1095.28 63.9319 1095.28 Z" fill="#000000" fill-rule="evenodd" fill-opacity="1" /><path clip-path="url(#clip950)" d="M84.0938 1124.58 L88.978 1124.58 L88.978 1130.46 L84.0938 1130.46 L84.0938 1124.58 Z" fill="#000000" fill-rule="evenodd" fill-opacity="1" /><path clip-path="url(#clip950)" d="M103.191 1126.53 L119.51 1126.53 L119.51 1130.46 L97.566 1130.46 L97.566 1126.53 Q100.228 1123.77 104.811 1119.14 Q109.418 1114.49 110.598 1113.15 Q112.844 1110.62 113.723 1108.89 Q114.626 1107.13 114.626 1105.44 Q114.626 1102.68 112.682 1100.95 Q110.76 1099.21 107.658 1099.21 Q105.459 1099.21 103.006 1099.98 Q100.575 1100.74 97.7974 1102.29 L97.7974 1097.57 Q100.621 1096.43 103.075 1095.86 Q105.529 1095.28 107.566 1095.28 Q112.936 1095.28 116.131 1097.96 Q119.325 1100.65 119.325 1105.14 Q119.325 1107.27 118.515 1109.19 Q117.728 1111.09 115.621 1113.68 Q115.043 1114.35 111.941 1117.57 Q108.839 1120.76 103.191 1126.53 Z" fill="#000000" fill-rule="evenodd" fill-opacity="1" /><path clip-path="url(#clip950)" d="M129.371 1095.9 L147.728 1095.9 L147.728 1099.84 L133.654 1099.84 L133.654 1108.31 Q134.672 1107.96 135.691 1107.8 Q136.709 1107.62 137.728 1107.62 Q143.515 1107.62 146.894 1110.79 Q150.274 1113.96 150.274 1119.37 Q150.274 1124.95 146.802 1128.06 Q143.33 1131.13 137.01 1131.13 Q134.834 1131.13 132.566 1130.76 Q130.32 1130.39 127.913 1129.65 L127.913 1124.95 Q129.996 1126.09 132.219 1126.64 Q134.441 1127.2 136.918 1127.2 Q140.922 1127.2 143.26 1125.09 Q145.598 1122.99 145.598 1119.37 Q145.598 1115.76 143.26 1113.66 Q140.922 1111.55 136.918 1111.55 Q135.043 1111.55 133.168 1111.97 Q131.316 1112.38 129.371 1113.26 L129.371 1095.9 Z" fill="#000000" fill-rule="evenodd" fill-opacity="1" /><path clip-path="url(#clip950)" d="M62.9365 753.042 Q59.3254 753.042 57.4967 756.607 Q55.6912 760.148 55.6912 767.278 Q55.6912 774.384 57.4967 777.949 Q59.3254 781.491 62.9365 781.491 Q66.5707 781.491 68.3763 777.949 Q70.205 774.384 70.205 767.278 Q70.205 760.148 68.3763 756.607 Q66.5707 753.042 62.9365 753.042 M62.9365 749.338 Q68.7467 749.338 71.8022 753.945 Q74.8809 758.528 74.8809 767.278 Q74.8809 776.005 71.8022 780.611 Q68.7467 785.195 62.9365 785.195 Q57.1264 785.195 54.0477 780.611 Q50.9921 776.005 50.9921 767.278 Q50.9921 758.528 54.0477 753.945 Q57.1264 749.338 62.9365 749.338 Z" fill="#000000" fill-rule="evenodd" fill-opacity="1" /><path clip-path="url(#clip950)" d="M83.0984 778.644 L87.9827 778.644 L87.9827 784.523 L83.0984 784.523 L83.0984 778.644 Z" fill="#000000" fill-rule="evenodd" fill-opacity="1" /><path clip-path="url(#clip950)" d="M98.2141 749.963 L116.57 749.963 L116.57 753.898 L102.496 753.898 L102.496 762.371 Q103.515 762.023 104.534 761.861 Q105.552 761.676 106.571 761.676 Q112.358 761.676 115.737 764.847 Q119.117 768.019 119.117 773.435 Q119.117 779.014 115.645 782.116 Q112.172 785.195 105.853 785.195 Q103.677 785.195 101.409 784.824 Q99.1632 784.454 96.7558 783.713 L96.7558 779.014 Q98.8391 780.148 101.061 780.704 Q103.284 781.259 105.76 781.259 Q109.765 781.259 112.103 779.153 Q114.441 777.046 114.441 773.435 Q114.441 769.824 112.103 767.718 Q109.765 765.611 105.76 765.611 Q103.885 765.611 102.01 766.028 Q100.159 766.445 98.2141 767.324 L98.2141 749.963 Z" fill="#000000" fill-rule="evenodd" fill-opacity="1" /><path clip-path="url(#clip950)" d="M138.33 753.042 Q134.719 753.042 132.89 756.607 Q131.084 760.148 131.084 767.278 Q131.084 774.384 132.89 777.949 Q134.719 781.491 138.33 781.491 Q141.964 781.491 143.769 777.949 Q145.598 774.384 145.598 767.278 Q145.598 760.148 143.769 756.607 Q141.964 753.042 138.33 753.042 M138.33 749.338 Q144.14 749.338 147.195 753.945 Q150.274 758.528 150.274 767.278 Q150.274 776.005 147.195 780.611 Q144.14 785.195 138.33 785.195 Q132.519 785.195 129.441 780.611 Q126.385 776.005 126.385 767.278 Q126.385 758.528 129.441 753.945 Q132.519 749.338 138.33 749.338 Z" fill="#000000" fill-rule="evenodd" fill-opacity="1" /><path clip-path="url(#clip950)" d="M63.9319 407.103 Q60.3208 407.103 58.4921 410.667 Q56.6865 414.209 56.6865 421.339 Q56.6865 428.445 58.4921 432.01 Q60.3208 435.552 63.9319 435.552 Q67.5661 435.552 69.3717 432.01 Q71.2004 428.445 71.2004 421.339 Q71.2004 414.209 69.3717 410.667 Q67.5661 407.103 63.9319 407.103 M63.9319 403.399 Q69.742 403.399 72.7976 408.005 Q75.8763 412.589 75.8763 421.339 Q75.8763 430.065 72.7976 434.672 Q69.742 439.255 63.9319 439.255 Q58.1217 439.255 55.043 434.672 Q51.9875 430.065 51.9875 421.339 Q51.9875 412.589 55.043 408.005 Q58.1217 403.399 63.9319 403.399 Z" fill="#000000" fill-rule="evenodd" fill-opacity="1" /><path clip-path="url(#clip950)" d="M84.0938 432.704 L88.978 432.704 L88.978 438.584 L84.0938 438.584 L84.0938 432.704 Z" fill="#000000" fill-rule="evenodd" fill-opacity="1" /><path clip-path="url(#clip950)" d="M97.9826 404.024 L120.205 404.024 L120.205 406.015 L107.658 438.584 L102.774 438.584 L114.58 407.959 L97.9826 407.959 L97.9826 404.024 Z" fill="#000000" fill-rule="evenodd" fill-opacity="1" /><path clip-path="url(#clip950)" d="M129.371 404.024 L147.728 404.024 L147.728 407.959 L133.654 407.959 L133.654 416.431 Q134.672 416.084 135.691 415.922 Q136.709 415.737 137.728 415.737 Q143.515 415.737 146.894 418.908 Q150.274 422.079 150.274 427.496 Q150.274 433.075 146.802 436.177 Q143.33 439.255 137.01 439.255 Q134.834 439.255 132.566 438.885 Q130.32 438.515 127.913 437.774 L127.913 433.075 Q129.996 434.209 132.219 434.765 Q134.441 435.32 136.918 435.32 Q140.922 435.32 143.26 433.214 Q145.598 431.107 145.598 427.496 Q145.598 423.885 143.26 421.778 Q140.922 419.672 136.918 419.672 Q135.043 419.672 133.168 420.089 Q131.316 420.505 129.371 421.385 L129.371 404.024 Z" fill="#000000" fill-rule="evenodd" fill-opacity="1" /><path clip-path="url(#clip950)" d="M53.7467 88.7096 L61.3856 88.7096 L61.3856 62.344 L53.0754 64.0106 L53.0754 59.7514 L61.3393 58.0847 L66.0152 58.0847 L66.0152 88.7096 L73.654 88.7096 L73.654 92.6447 L53.7467 92.6447 L53.7467 88.7096 Z" fill="#000000" fill-rule="evenodd" fill-opacity="1" /><path clip-path="url(#clip950)" d="M83.0984 86.7651 L87.9827 86.7651 L87.9827 92.6447 L83.0984 92.6447 L83.0984 86.7651 Z" fill="#000000" fill-rule="evenodd" fill-opacity="1" /><path clip-path="url(#clip950)" d="M108.168 61.1634 Q104.557 61.1634 102.728 64.7282 Q100.922 68.2698 100.922 75.3994 Q100.922 82.5059 102.728 86.0707 Q104.557 89.6123 108.168 89.6123 Q111.802 89.6123 113.608 86.0707 Q115.436 82.5059 115.436 75.3994 Q115.436 68.2698 113.608 64.7282 Q111.802 61.1634 108.168 61.1634 M108.168 57.4597 Q113.978 57.4597 117.033 62.0662 Q120.112 66.6495 120.112 75.3994 Q120.112 84.1262 117.033 88.7327 Q113.978 93.316 108.168 93.316 Q102.358 93.316 99.2789 88.7327 Q96.2234 84.1262 96.2234 75.3994 Q96.2234 66.6495 99.2789 62.0662 Q102.358 57.4597 108.168 57.4597 Z" fill="#000000" fill-rule="evenodd" fill-opacity="1" /><path clip-path="url(#clip950)" d="M138.33 61.1634 Q134.719 61.1634 132.89 64.7282 Q131.084 68.2698 131.084 75.3994 Q131.084 82.5059 132.89 86.0707 Q134.719 89.6123 138.33 89.6123 Q141.964 89.6123 143.769 86.0707 Q145.598 82.5059 145.598 75.3994 Q145.598 68.2698 143.769 64.7282 Q141.964 61.1634 138.33 61.1634 M138.33 57.4597 Q144.14 57.4597 147.195 62.0662 Q150.274 66.6495 150.274 75.3994 Q150.274 84.1262 147.195 88.7327 Q144.14 93.316 138.33 93.316 Q132.519 93.316 129.441 88.7327 Q126.385 84.1262 126.385 75.3994 Q126.385 66.6495 129.441 62.0662 Q132.519 57.4597 138.33 57.4597 Z" fill="#000000" fill-rule="evenodd" fill-opacity="1" /><polyline clip-path="url(#clip952)" style="stroke:#009af9; stroke-linecap:butt; stroke-linejoin:round; stroke-width:4; stroke-opacity:1; fill:none" points="
  2277.33,521.08 733.963,678.786 1195.66,87.9763 2291.44,626 451.098,1445.72 1167.76,374.734 1213.59,919.887 1421.71,970.409 247.59,959.403 1915.6,565.881 
  
  "/>
<path clip-path="url(#clip950)" d="
M1988.11 198.898 L2280.54 198.898 L2280.54 95.2176 L1988.11 95.2176  Z
  " fill="#ffffff" fill-rule="evenodd" fill-opacity="1"/>
<polyline clip-path="url(#clip950)" style="stroke:#000000; stroke-linecap:butt; stroke-linejoin:round; stroke-width:4; stroke-opacity:1; fill:none" points="
  1988.11,198.898 2280.54,198.898 2280.54,95.2176 1988.11,95.2176 1988.11,198.898 
  "/>
<polyline clip-path="url(#clip950)" style="stroke:#009af9; stroke-linecap:butt; stroke-linejoin:round; stroke-width:4; stroke-opacity:1; fill:none" points="
  2012.11,147.058 2156.11,147.058 
  "/>
<path clip-path="url(#clip950)" d="M2193.95 166.745 Q2192.15 171.375 2190.43 172.787 Q2188.72 174.199 2185.85 174.199 L2182.45 174.199 L2182.45 170.634 L2184.95 170.634 Q2186.71 170.634 2187.68 169.8 Q2188.65 168.967 2189.83 165.865 L2190.6 163.921 L2180.11 138.412 L2184.62 138.412 L2192.73 158.689 L2200.83 138.412 L2205.34 138.412 L2193.95 166.745 Z" fill="#000000" fill-rule="evenodd" fill-opacity="1" /><path clip-path="url(#clip950)" d="M2212.63 160.402 L2220.27 160.402 L2220.27 134.037 L2211.96 135.703 L2211.96 131.444 L2220.23 129.778 L2224.9 129.778 L2224.9 160.402 L2232.54 160.402 L2232.54 164.338 L2212.63 164.338 L2212.63 160.402 Z" fill="#000000" fill-rule="evenodd" fill-opacity="1" /></svg>
